<?xml version="1.0" standalone="no"?>
<!DOCTYPE svg PUBLIC "-//W3C//DTD SVG 20010904//EN"
 "http://www.w3.org/TR/2001/REC-SVG-20010904/DTD/svg10.dtd">
<svg version="1.0" xmlns="http://www.w3.org/2000/svg"
 width="256.000000pt" height="256.000000pt" viewBox="0 0 256.000000 256.000000"
 preserveAspectRatio="xMidYMid meet">

<g transform="translate(0.000000,256.000000) scale(0.100000,-0.100000)"
fill="#1157ed" stroke="#000000">
<path d="M835 2230 c-50 -9 -166 -42 -371 -106 l-111 -34 137 -453 c76 -248
185 -609 244 -800 58 -192 106 -350 106 -353 0 -2 25 -4 56 -4 48 0 55 2 50
17 -21 54 -199 654 -195 657 3 3 81 28 174 57 269 82 342 79 460 -19 78 -66
109 -77 200 -76 69 1 114 12 328 77 137 42 251 78 254 80 5 6 -276 948 -286
958 -3 3 -114 -28 -246 -69 -188 -58 -258 -75 -321 -79 -102 -7 -135 4 -216
69 -35 28 -76 56 -93 63 -44 19 -113 25 -170 15z"/>
</g>
</svg>
